<?xml version="1.0" encoding="UTF-8"?><svg xmlns="http://www.w3.org/2000/svg" xmlns:xlink="http://www.w3.org/1999/xlink" height="297.0" preserveAspectRatio="xMidYMid meet" version="1.0" viewBox="-2.3 -0.0 389.5 297.0" width="389.5" zoomAndPan="magnify"><g data-name="Layer 2"><g id="change1_1"><path d="M358.42,220.35c1.27,13.74-.52,66.8-.95,67.62s-1.7,2.35-4.79,3-6.57-1-5.85-3.58-1.19-26-2.33-36.56.92-31.94.92-31.94C355.83,216.87,358.42,220.35,358.42,220.35Zm4-1.16s-2.06,21.38-.92,31.93,3,34,2.33,36.57,2.76,4.26,5.85,3.57,4.36-2.21,4.79-3,2.22-53.88.95-67.62C375.42,220.61,372.83,217.13,362.42,219.19Z" fill="#f7dcd0"/></g><g id="change2_1"><path d="M353.79,124.05a4.5,4.5,0,0,1-4.49-4.34c-.22-5.81-.27-12.87.58-15.2,1.54-4.18,2.79-8,9.49-7.11a12.92,12.92,0,0,1,10.33,0c5.86,2.37,6.69,7.95,6.83,13.53.05,1.94.24,5.07.45,8.32a4.49,4.49,0,0,1-4.48,4.8Z" fill="inherit"/></g><g id="change3_1"><path d="M344.49 135.03L341.51 156.05 356.49 155.31 357.05 141.35 344.49 135.03z" fill="#9ad0d3"/></g><g id="change3_2"><path d="M313.13,16.16l-2.56,18a3,3,0,0,1-2.87,2.54H233.47a2.14,2.14,0,0,1-2.15-2.54l2.56-18a3,3,0,0,1,2.88-2.54H311A2.14,2.14,0,0,1,313.13,16.16Z" fill="#9ad0d3"/></g><g id="change3_3"><path d="M329.34,142H231.56a2.9,2.9,0,0,1-2.87-3.33l12.17-81.5a2.92,2.92,0,0,1,2.87-2.48h95.91a2.91,2.91,0,0,1,2.88,3.27l-10.3,81.5A2.9,2.9,0,0,1,329.34,142Z" fill="#9ad0d3"/></g><g id="change2_2"><path d="M268.14,112.72h0a.38.38,0,0,1-.31-.27l-7.23-23.83-17,23.57a.37.37,0,0,1-.53.08.38.38,0,0,1-.08-.52L260.4,87.57a.34.34,0,0,1,.36-.15.37.37,0,0,1,.3.26l7.2,23.74,26.72-45a.38.38,0,0,1,.39-.17.36.36,0,0,1,.31.3l6.89,37,27.4-42a.38.38,0,0,1,.52-.11.38.38,0,0,1,.11.52l-27.91,42.79a.38.38,0,0,1-.39.17.37.37,0,0,1-.29-.3l-6.89-37-26.65,44.91A.39.39,0,0,1,268.14,112.72Z" fill="inherit"/></g><g id="change4_1"><path d="M238.69,133.68c3.62-4.07,7.64-9.3,11.65-13,1.41-1.31,3-2.66,4.82-2.93,2.56-.37,4.51,1.52,6.12,3.24,1.92,2.06,4.06,4.14,7,4.69,3.59.68,7.49-1.1,11-2.88,3.08-1.55,6.23-3.21,8.63-5.73s3.87-5.6,6.66-7.45a3.77,3.77,0,0,1,1.59-.67,2.76,2.76,0,0,1,2.37,1.13c1.49,1.78,1.75,4.32,2.33,6.64s1.75,4.72,4.12,5.27c3.08.71,6.37-2.06,8.39-4.87s3.77-6.09,6.83-7.71a3,3,0,0,1,2.91-.27c.87.57.89,1.83.83,2.93q-.36,6.82-.7,13.66c-.1,1.89-.62,6.43-2,8Z" fill="#fff"/></g><g id="change3_4"><path d="M288.45,252.82a5.43,5.43,0,0,1-3.6-1.47,15.09,15.09,0,0,1-3.89-5.26c-1.3-3.54-4.09-2.42-7.26-3.35s-6.88-3.91-5.76-8.37a20.74,20.74,0,0,1,2.41-6.33s-8-6.88-6.69-11,4.28-8,9.3-6.51,8.18,10.24,8.56,17.31a6.68,6.68,0,0,1,6,4.27c1.67,4.28-.56,9.68-.56,9.68s3-.19,4.09,2.05c0,0,2.24-4.66.56-8.19s-6.14-5.58-6.88-9.49,0-6.51,2.42-8.56c0,0-5.4-9.49,2.42-16.18,0,0-2.61-13.77,6.51-14.7s8.56,16.37,4.46,21c0,0,5.21,3.72,2.05,8.93s-6,5.77-6,9.3,1.67,4.28,1.86,7.82-1.86,5.21-2.05,7.44c0,0,3-.74,3.72-2.79s-5.21-16.56,7.82-23.44c0,0-2.24-13.4,7.25-15.44s12.28,9.3,4.65,20.09c0,0,5.4,7.63-.93,14.32s-9.67,5.4-9.67,5.4a15.89,15.89,0,0,1-9.91,13.07,7.45,7.45,0,0,1-3,.55Z" fill="#9ad0d3"/></g><g id="change4_2"><path d="M212.52,159.6l7.62,15.81H195.59l-5.77-15.62Z" fill="#fff"/></g><g id="change2_3"><path d="M220.14,175.79H195.59a.39.39,0,0,1-.36-.25l-5.76-15.62a.36.36,0,0,1,0-.35.37.37,0,0,1,.31-.16l22.69-.19h0a.37.37,0,0,1,.33.22l7.63,15.81a.36.36,0,0,1,0,.36A.38.38,0,0,1,220.14,175.79ZM195.85,175h23.7L212.28,160l-21.93.18Z" fill="inherit"/></g><g id="change3_5"><path d="M248.69,177.83H157.94a1.14,1.14,0,0,1-1.14-1.14h0a5.37,5.37,0,0,1,5.37-5.37h84.07a3.59,3.59,0,0,1,3.59,3.59v1.78A1.14,1.14,0,0,1,248.69,177.83Z" fill="#9ad0d3"/></g><g id="change2_4"><path d="M244.11,172.25H157.77a4.61,4.61,0,0,0-4.61,4.6v2.28a.38.38,0,0,0,.38.38h93a.38.38,0,0,0,.38-.38v-4.06A2.83,2.83,0,0,0,244.11,172.25Zm2.08,6.51H153.91v-1.91a3.86,3.86,0,0,1,3.86-3.85h86.34a2.08,2.08,0,0,1,2.08,2.07Z" fill="inherit"/></g><g id="change4_3"><path d="M266.89,183.6H99.35v-7H266.89a3.49,3.49,0,0,1,3.49,3.49h0A3.49,3.49,0,0,1,266.89,183.6Z" fill="#fff"/></g><g id="change3_6"><path d="M107.21,214.85,103.49,274c-6.88,2.79-15.07.93-15.07.93L83,214.48ZM95.68,196.72,94,212.34h23.17l-2,22.89,19.54,3.35s10.32-28.75,4.74-36.56-26.09-7.12-26.09-7.12C106.56,198.39,95.68,196.72,95.68,196.72Z" fill="#9ad0d3"/></g><g id="change2_5"><path d="M137.87,282.39c.16,2.11-3.22,1.8-7.88,1.65s-17.65-.3-17.55-1.22c.07-.61,4.11-5.33,4.45-7.36h0c1.66-5.74.17-21.95-.14-25.09-2-6.2-1.55-15.14-1.55-15.14l19.54,3.35s-1.89,10.42-6.84,15.23a34.4,34.4,0,0,0-6.07,21.76l.91.47a35.88,35.88,0,0,0,8.19,3C134,279.81,137.75,281,137.87,282.39Z" fill="inherit"/></g><g id="change3_7"><path d="M197,129.18H113.34a2.63,2.63,0,0,1-2.59-3.1L133,2.17A2.63,2.63,0,0,1,135.59,0l81.49,1.05a2.64,2.64,0,0,1,2.57,3.06L199.57,127A2.63,2.63,0,0,1,197,129.18Z" fill="#9ad0d3"/></g><g id="change2_6"><path d="M266.89,176.25H99.35a.38.38,0,0,0-.38.37v7a.37.37,0,0,0,.38.37H255.12v0l7.81,97.86a.38.38,0,0,0,.38.35h0a.38.38,0,0,0,.34-.41L255.87,184h11a3.86,3.86,0,0,0,0-7.72Zm0,7H99.72V177H266.89a3.11,3.11,0,0,1,0,6.22Z" fill="inherit"/></g><g id="change2_7"><path d="M212.66,7.61a3,3,0,0,0-2.27-1.08l-81.5-1h0a3,3,0,0,0-3,2.47L103.68,131.87a3,3,0,0,0,3,3.55h83.64a3,3,0,0,0,3-2.53L213.32,10A3,3,0,0,0,212.66,7.61Zm-.08,2.3L192.51,132.77a2.26,2.26,0,0,1-2.23,1.9H106.64a2.26,2.26,0,0,1-2.22-2.66L126.63,8.1a2.25,2.25,0,0,1,2.22-1.86h0l81.5,1a2.27,2.27,0,0,1,1.7.81A2.23,2.23,0,0,1,212.58,9.91Zm-5.74,9.32a.36.36,0,0,1-.37.37h0l-20.87-.15-14.48,83.28a.37.37,0,0,1-.37.31h-.07a.38.38,0,0,1-.3-.44l14.46-83.15L128.05,19a.36.36,0,0,1-.37-.37.37.37,0,0,1,.37-.38h0l78.42.56A.37.37,0,0,1,206.84,19.23Zm-74.46-6.7a1.26,1.26,0,1,1,1.25,1.26A1.26,1.26,0,0,1,132.38,12.53Zm5.44.14a1.26,1.26,0,1,1,1.25,1.25A1.26,1.26,0,0,1,137.82,12.67Zm5,0a1.26,1.26,0,1,1,1.26,1.25A1.26,1.26,0,0,1,142.82,12.67Zm47.37,14.1a1.5,1.5,0,1,0-1.49-1.5A1.5,1.5,0,0,0,190.19,26.77Zm0-2.24a.75.75,0,1,1-.74.74A.74.74,0,0,1,190.19,24.53Zm11.45.74a.38.38,0,0,1-.38.38h-6.7a.38.38,0,0,1,0-.75h6.7A.38.38,0,0,1,201.64,25.27ZM187.3,32.72a1.5,1.5,0,1,0,1.49-1.5A1.49,1.49,0,0,0,187.3,32.72Zm1.49-.75a.75.75,0,1,1-.74.75A.76.76,0,0,1,188.79,32Zm11.45.75a.38.38,0,0,1-.37.37h-6.7a.38.38,0,1,1,0-.75h6.7A.38.38,0,0,1,200.24,32.72Zm-13.87,7.72a1.5,1.5,0,1,0,1.5-1.49A1.5,1.5,0,0,0,186.37,40.44Zm1.5-.74a.74.74,0,1,1-.75.74A.74.74,0,0,1,187.87,39.7Zm11.44.74a.38.38,0,0,1-.38.37h-6.69a.38.38,0,1,1,0-.75h6.69A.38.38,0,0,1,199.31,40.44ZM188.24,49a1.49,1.49,0,1,0-1.49,1.5A1.49,1.49,0,0,0,188.24,49Zm-1.49.75a.75.75,0,1,1,.74-.75A.75.75,0,0,1,186.75,49.74ZM198.19,49a.37.37,0,0,1-.37.38h-6.7a.38.38,0,0,1,0-.75h6.7A.37.37,0,0,1,198.19,49Zm-13,6.61a1.49,1.49,0,1,0,1.49,1.49A1.49,1.49,0,0,0,185.17,55.6Zm0,2.23a.74.74,0,1,1,.74-.74A.74.74,0,0,1,185.17,57.83Zm11.44-.74a.38.38,0,0,1-.37.37h-6.7a.38.38,0,1,1,0-.75h6.7A.38.38,0,0,1,196.61,57.09ZM183.77,63a1.49,1.49,0,1,0,1.49,1.49A1.49,1.49,0,0,0,183.77,63Zm0,2.23a.74.74,0,1,1,.74-.74A.74.74,0,0,1,183.77,65.27Zm11.45-.74a.37.37,0,0,1-.38.37h-6.7a.37.37,0,0,1-.37-.37.38.38,0,0,1,.37-.38h6.7A.38.38,0,0,1,195.22,64.53ZM127.3,35a.38.38,0,0,1,.38-.38L163,34.39h0a.38.38,0,0,1,0,.75l-35.35.18h0A.37.37,0,0,1,127.3,35Zm36.94,63.44a.38.38,0,0,1-.37.38L128.52,99h0a.38.38,0,1,1,0-.75L163.86,98h0A.37.37,0,0,1,164.24,98.39Zm-.56,4.46a.37.37,0,0,1-.37.38l-35.35.19h0a.38.38,0,1,1,0-.75l35.34-.19h0A.38.38,0,0,1,163.68,102.85ZM123.4,67.32a.37.37,0,0,1,.37-.37l35.35-.19h0a.38.38,0,1,1,0,.75l-35.35.19h0A.38.38,0,0,1,123.4,67.32ZM165.08,87.5a.38.38,0,0,1-.38.38l-35.34.19h0a.38.38,0,0,1-.37-.38.37.37,0,0,1,.37-.37l35.35-.19h0A.38.38,0,0,1,165.08,87.5Zm1.67-26.69a.37.37,0,0,1-.37.37l-10,.06h0a.39.39,0,0,1-.38-.38.38.38,0,0,1,.38-.37l10-.06h0A.38.38,0,0,1,166.75,60.81Zm-15.44-.3a.38.38,0,0,1,.37.38.37.37,0,0,1-.37.37L131,61.37h0a.38.38,0,1,1,0-.75l20.28-.11Zm-2.79,32.82a.38.38,0,1,1,0-.75l10.05,0h0a.37.37,0,0,1,.38.37.38.38,0,0,1-.38.38l-10,0Zm-5,0-20.28.1h0a.38.38,0,0,1,0-.75l20.28-.1a.35.35,0,0,1,.38.37A.38.38,0,0,1,143.5,93.36Zm18-52-19.35.1h0a.38.38,0,0,1-.38-.37.39.39,0,0,1,.38-.38l19.35-.1c.18,0,.37.17.37.38A.37.37,0,0,1,161.54,41.39Zm-7.44,6.7-19.35.1h0a.37.37,0,0,1-.38-.37.38.38,0,0,1,.38-.38l19.35-.1a.4.4,0,0,1,.37.37A.37.37,0,0,1,154.1,48.09Zm-.37,7.07-19.35.1h0a.37.37,0,0,1-.37-.37.38.38,0,0,1,.37-.38l19.35-.1h0a.38.38,0,0,1,0,.75ZM125.82,41.21a.37.37,0,0,1,.37-.38l9.67,0h0a.37.37,0,0,1,.38.37.38.38,0,0,1-.37.38l-9.68,0h0A.37.37,0,0,1,125.82,41.21Zm8.74-15.4a.38.38,0,0,1-.37-.37.37.37,0,0,1,.37-.38l6.67,0a.36.36,0,0,1,.38.37.38.38,0,0,1-.37.38l-6.67,0Zm-1.95-2.1-2.32,1.83,2.21,2.21a.37.37,0,0,1,0,.53.34.34,0,0,1-.26.11.35.35,0,0,1-.27-.11l-2.51-2.51a.34.34,0,0,1-.11-.29.42.42,0,0,1,.14-.27l2.65-2.09a.38.38,0,1,1,.47.59Zm10,4,2.74-2.49-2.16-1.68a.39.39,0,0,1-.07-.53.38.38,0,0,1,.53-.06l2.51,1.95a.39.39,0,0,1,.15.28.36.36,0,0,1-.13.29l-3.07,2.8a.38.38,0,0,1-.25.09.39.39,0,0,1-.28-.12A.38.38,0,0,1,142.59,27.74ZM130.33,76.52a.38.38,0,0,1,.37.37.37.37,0,0,1-.37.38l-5.67,0h0a.37.37,0,0,1-.38-.37.38.38,0,0,1,.37-.38l5.67,0Zm-7.73,2.75a.39.39,0,0,1,0,.53.39.39,0,0,1-.54,0l-2.51-2.52a.41.41,0,0,1-.11-.28.39.39,0,0,1,.15-.28l2.65-2.09a.37.37,0,0,1,.52.06.38.38,0,0,1-.06.53l-2.32,1.83Zm14.09,0,2.73-2.49-2.16-1.68a.37.37,0,0,1-.06-.52.37.37,0,0,1,.53-.07l2.51,2a.38.38,0,0,1,.14.28.37.37,0,0,1-.12.3l-3.07,2.79a.39.39,0,0,1-.25.1.39.39,0,0,1-.28-.13A.37.37,0,0,1,136.69,79.25Zm-.88-5.34a.37.37,0,0,1,.11.52L132.3,80a.4.4,0,0,1-.32.17.37.37,0,0,1-.31-.58L135.3,74A.37.37,0,0,1,135.81,73.91Z" fill="inherit"/></g><g id="change5_1"><path d="M82.56,70.58s6.89-7.26,9.31-8.66,9.76-4.27,10.51-3.9-6.7,6.7-6.7,6.7a4.36,4.36,0,0,1,.84,4.18c-.65,2.79-10,9.4-10,9.4Z" fill="#edbea4"/></g><g id="change3_8"><path d="M28.14,68.06l2.24,3.21c9.35-4,15.07-.69,19.25,1.26l16.84,7.81L79.12,68.06C85.82,69,89.91,80,89.91,80s-12,14.89-18.37,18S53,93,53,93l10.51,48S48.56,148.72,35,150.67,4.7,146.2,4.7,146.2c.39-1.73,3.86-18.36,4.12-18.32-2.58-.35-7.38-.25-8.29-3.27s-.34-5.9-.34-9.06c0-4.33,2.23-28.32,3.91-33.63S20.19,71.69,20.19,71.69l.28-2.93Z" fill="#9ad0d3"/></g><g id="change4_4"><path d="M71.46,113.93l-33.1,2.53a1.71,1.71,0,0,1-1.82-1.95l3.68-25.75a1.71,1.71,0,0,1,1.65-1.47l33.46-.76a1.72,1.72,0,0,1,1.73,2l-4,24A1.7,1.7,0,0,1,71.46,113.93Z" fill="#fff"/></g><g id="change2_8"><path d="M38.23,116.84a2.08,2.08,0,0,1-2.06-2.38L39.85,88.7a2.08,2.08,0,0,1,2-1.79l33.46-.76a2.09,2.09,0,0,1,1.63.72,2.14,2.14,0,0,1,.48,1.72l-4,24a2.09,2.09,0,0,1-1.9,1.73h0l-33.1,2.52ZM75.37,86.9h0l-33.46.76a1.34,1.34,0,0,0-1.29,1.15l-3.68,25.76a1.32,1.32,0,0,0,.35,1.1,1.34,1.34,0,0,0,1.07.42l33.1-2.53a1.33,1.33,0,0,0,1.22-1.11l4-24a1.35,1.35,0,0,0-.31-1.09A1.33,1.33,0,0,0,75.37,86.9Zm-3.91,27h0Zm-31.22-.33,3.08-22.52a.72.72,0,0,1,.69-.62l29.63-.81a.38.38,0,1,0,0-.75h0L44,89.71A1.45,1.45,0,0,0,42.58,91L39.49,113.5a.37.37,0,0,0,.32.42h.06A.38.38,0,0,0,40.24,113.6Z" fill="inherit"/></g><g id="change2_9"><path d="M57.66,106.61a4.09,4.09,0,0,1-1.42-.25,5.09,5.09,0,0,1,3.53-9.47,4.27,4.27,0,0,1,2.47,2.52,5.53,5.53,0,0,1-2.49,6.66A4.4,4.4,0,0,1,57.66,106.61Zm.69-9.22a4.28,4.28,0,0,0-3.85,2.93,4,4,0,0,0,2,5.33,3.49,3.49,0,0,0,2.9-.24,4.64,4.64,0,0,0,2.11-2.48h0a4.61,4.61,0,0,0,0-3.25,3.45,3.45,0,0,0-2-2.08A3.25,3.25,0,0,0,58.35,97.39Z" fill="inherit"/></g><g id="change5_2"><path d="M29.54,103.49s15.36-7.3,17.64-6.23-2.89,4.1-2.89,4.1,3.65-2,4.86-1.06-3.49,4-3.49,4,2.73-.91,3,.46-15.36,9.12-15.36,9.12S33.19,107.29,29.54,103.49Z" fill="#edbea4"/></g><g id="change2_10"><path d="M16.08,108.4a2,2,0,0,1-2-2.06l.46-11.5a.38.38,0,0,1,.75,0l-.46,11.5a1.24,1.24,0,0,0,1.68,1.2l12.41-4.83a.37.37,0,0,1,.48.21.38.38,0,0,1-.21.49L16.8,108.27A2,2,0,0,1,16.08,108.4Zm-3.23,20.27L33.5,116.39a.38.38,0,0,0-.38-.65L12.46,128a.38.38,0,0,0,.2.7A.45.45,0,0,0,12.85,128.67Z" fill="inherit"/></g><g id="change2_11"><path d="M19.91,63S15,64.86,13.63,60.39c-.69-2.79-2.51-2.09-2.51-4.19s1.54-2.65,1.54-3.9-1.54-2.65.14-4.89,1.81-.83,2.37-1.67-.28-3.07,1.39-4.47,1.68.14,2.79-.69,1.26-3.49,4-3.49,2.79,1.67,3.91,1.53,1.53-1.39,3.49-.28,2.51,2.52,3.62,2.52,3.35-.14,3.91,2.79S35.82,47,35.82,47l-4.47,8.8Z" fill="inherit"/></g><g id="change5_3"><path d="M35.82,47s9.91,21.21-7.95,19l.27,2.09-7.59,1.68-.64-8.37s-2.51-.7-2.37-2.65A3.13,3.13,0,0,1,21,55.65c2.09,0,3.07-2.79,3.07-2.79S27,51.6,27.31,49.51a3.58,3.58,0,0,0,3.07-2.1A4.34,4.34,0,0,0,35.82,47Z" fill="#edbea4"/></g><g id="change4_5"><path d="M63.49,141,46.38,272.72c-6.33,5.2-17.49,3.34-17.49,3.34l-3.35-42.41-5.21,40.93c-5.58,5.2-14.14,1.11-14.14,1.11C-2,251.13,4.7,146.2,4.7,146.2,36.7,155.51,63.49,141,63.49,141Z" fill="#fff"/></g><g id="change2_12"><path d="M50,283.51c-3.23-.11-13.67-1.59-19.21-2.41l.05,0c3.2,2,.55,3.07-3.91,2.93-3.55-.11-15.82-1.89-20.71-2.62a1.66,1.66,0,0,1-1.31-2.23l1.32-3.52s8.42,2.09,14.14-1.11c0,0,4,2.53,7.37,4.64a.58.58,0,0,1,0-.14L29,275.41s11.3.7,17-2.51A79.17,79.17,0,0,0,54.75,280C58,281.92,54.42,283.65,50,283.51Z" fill="inherit"/></g><g id="change4_6"><path d="M5.26,272.21s8.53,2.41,15.21-1.28" fill="#fff"/></g><g id="change4_7"><path d="M28.56,270.67s11.6,1.46,18.28-2.23" fill="#fff"/></g><g id="change2_13"><path d="M63.7,140.69a.35.35,0,0,0-.39,0c-.26.14-27,14.32-58.5,5.17a.37.37,0,0,0-.32.06.33.33,0,0,0-.16.28c-.07,1-6.61,105.29,1.51,129.63A.35.35,0,0,0,6,276a18.47,18.47,0,0,0,7.13,1.55,10.59,10.59,0,0,0,7.43-2.73.38.38,0,0,0,.11-.23l4.75-37.32,3.06,38.79a.37.37,0,0,0,.32.34c.46.08,11.4,1.83,17.79-3.43a.36.36,0,0,0,.13-.24L63.87,141A.38.38,0,0,0,63.7,140.69ZM6.5,275.42c-.27-.81-.52-1.72-.75-2.7a27,27,0,0,0,5.83.65,19,19,0,0,0,8.78-2l-.38,3C15,278.87,7.61,275.9,6.5,275.42Zm22.74.32-.37-4.65a50.25,50.25,0,0,0,5.08.25c3.78,0,8.76-.44,12.53-2.31L46,272.52C40.45,277,31,276,29.24,275.74Zm17.35-7.6c-6,3.29-16.24,2.35-17.78,2.18l-2.89-36.66L36.33,160.4a.37.37,0,1,0-.74-.11l-10.42,73.3h0l-4.71,37a.33.33,0,0,0-.17,0c-5.94,3.29-13.47,1.61-14.73,1.3C-.72,243.41,4.6,154,5.05,146.69c28.87,8.21,53.72-2.95,58-5Z" fill="inherit"/></g><g id="change5_4"><path d="M60.8,134.9s1.11-3.63,7.25-5,7.68-1.82,8.09-2.79a12.14,12.14,0,0,0,.56-2.93l13.26.69s.28,3.21,5.16,3.77,11.3-.42,15.91,4.47,13,28.74,14.37,33.35,2.37,7.39,2.37,7.39l9.63-5.16s4.6,7.25,4.33,10.18c0,0-14.8,9.91-18.28,10.19s-6.42-2.65-7.54-5.16-10.6-28.19-10.6-28.19,8.51,37,8.09,39.21-7,2.65-10.6,2.79-16.19-.14-16.19-.14Z" fill="#edbea4"/></g><g id="change4_8"><path d="M96.37,156.92c1.26,9.22.86,18.55,1.24,27.83q.54,13.09.86,26.2H119.4c.73.73.45,1.57-.1,2.28a4.33,4.33,0,0,1-3.49,1.61c-8.5-.1-47.41-.54-53.62-.54-7,0-7.53-5.31-7.53-5.31s-8.93-57.76-8.93-65.58,7.81-8.65,7.81-8.65l32.09,1.12C93.43,136.15,95.63,151.52,96.37,156.92Z" fill="#fff"/></g><g id="change2_14"><path d="M78.56,120.34a14.24,14.24,0,0,1-7.1-6.41c-2.48-4.75-4.15-8.38-2.66-10.61A10.27,10.27,0,0,1,72,100.16s.09-6.79,5.86-7.07,8.46-2.51,11.25-2.79,6.05-.28,6.61,3.44A5,5,0,0,1,92.89,99l-3.16,10.6-6.14,7.35-3.72,4.75Z" fill="inherit"/></g><g id="change4_9"><path d="M82.47,113.65c-2.79,0-5-2.8-3.35-4.66s2.23,2.42,4.47,1.68,2-8.19,2-8.19c2.79,0,7.26-3.53,7.26-3.53a40,40,0,0,1,2.23,7.81c.75,4.28.37,6.89-2.42,10.23a7.7,7.7,0,0,1-6.88,2.61l.93,5.21-7.44-.19-.75-4.28C82.1,120,82.47,113.65,82.47,113.65Z" fill="#fff"/></g><g id="change2_15"><path d="M86.75,125.18h0L79.3,125a.38.38,0,0,1-.36-.31l-.75-4.28a.38.38,0,0,1,.33-.44c2.71-.28,3.39-4.64,3.54-6a4.42,4.42,0,0,1-3.64-2.43,2.54,2.54,0,0,1,.42-2.83,1.35,1.35,0,0,1,1.12-.59c.62,0,1.06.53,1.53,1.09.69.82,1.2,1.33,2,1.07,1.43-.47,1.86-5,1.79-7.82a.38.38,0,0,1,.1-.27.39.39,0,0,1,.27-.11c2.63,0,7-3.42,7-3.46a.41.41,0,0,1,.32-.07.35.35,0,0,1,.25.22,40.64,40.64,0,0,1,2.26,7.9c.7,4,.51,6.92-2.5,10.53a7.94,7.94,0,0,1-6.71,2.8l.84,4.71a.35.35,0,0,1-.09.31A.34.34,0,0,1,86.75,125.18Zm-7.13-.92,6.68.16-.85-4.75a.41.41,0,0,1,.1-.34.4.4,0,0,1,.33-.1,7.35,7.35,0,0,0,6.53-2.48c2.85-3.41,3-6,2.34-9.92a40,40,0,0,0-2-7.28c-1.11.83-4.31,3.06-6.71,3.29,0,1.65-.1,7.45-2.31,8.18-1.32.45-2.16-.56-2.78-1.29-.34-.41-.7-.83-1-.83s-.33.11-.54.35a1.77,1.77,0,0,0-.29,2,3.74,3.74,0,0,0,3.36,2,.36.36,0,0,1,.27.12.35.35,0,0,1,.1.28c0,.26-.4,6.2-3.84,7Z" fill="inherit"/></g><g id="change4_10"><path d="M89.77,275.18A23.19,23.19,0,0,0,102.38,274h0l.93,4.09s10.6,1.12,11.16,3.16-3,1.86-7.63,2.24-17.67.18-17.67-.75.37-7.63.37-7.63Z" fill="#fff"/></g><g id="change2_16"><path d="M100.39,284.05c-5,0-10.68-.23-11.42-.91a.55.55,0,0,1-.18-.38c0-.93.36-7.37.38-7.65a.32.32,0,0,1,.14-.27.32.32,0,0,1,.3-.07l.23,0a22.81,22.81,0,0,0,12.4-1.14.34.34,0,0,1,.31,0,.35.35,0,0,1,.19.24l.87,3.84c2.3.25,10.65,1.31,11.22,3.4a1.44,1.44,0,0,1-.17,1.28c-.69,1-2.76,1.1-5.61,1.28l-2.18.15C105.59,284,103.11,284.05,100.39,284.05Zm-10.85-1.42c1.3.64,12.45.89,17.27.5L109,283c2.45-.15,4.56-.29,5-1a.72.72,0,0,0,.06-.65c-.34-1.24-6.54-2.43-10.84-2.89a.37.37,0,0,1-.33-.29l-.83-3.67a23.54,23.54,0,0,1-12.22,1.06C89.81,277,89.57,281.54,89.54,282.63Z" fill="inherit"/></g><g id="change2_17"><path d="M119.67,210.68a.39.39,0,0,0-.27-.11H98.84c-.2-8.22-.48-16.68-.86-25.84-.12-3-.16-6-.2-8.89a157.41,157.41,0,0,0-1-19c-.71-5.21-2.87-21-11.06-21.36h-.13l-32-1.11c-.08,0-8.15,1-8.15,9,0,7.76,8.57,63.28,8.93,65.62,0,.06.6,4.91,6.54,5.56v69.47a.37.37,0,0,0,.37.38.38.38,0,0,0,.38-.38V214.64c.2,0,.4,0,.62,0,3.62,0,18.3.15,31.58.3l0,70.21a.37.37,0,0,0,.37.38.38.38,0,0,0,.38-.38l0-70.21,21.28.24h.06a4.71,4.71,0,0,0,3.74-1.75C120.68,212.06,120.1,211.12,119.67,210.68ZM119,213a4,4,0,0,1-3.19,1.46c-7.85-.09-47.34-.54-53.62-.54-6.54,0-7.14-4.76-7.16-5-.09-.58-8.93-57.83-8.93-65.53,0-7.37,7.18-8.24,7.43-8.27l30.13,1.05a4,4,0,0,0-.45.4c-1.61,1.69-3.11,6-1.11,17.12,3.31,18.4,10.63,57.2,10.7,57.59a.37.37,0,0,0,.37.3h.07a.38.38,0,0,0,.3-.44c-.08-.39-7.39-39.19-10.7-57.58-1.93-10.73-.59-14.87.89-16.44a2.46,2.46,0,0,1,1.76-.89h.13c5,.18,8.52,7.15,10.38,20.72a157.63,157.63,0,0,1,1,18.88c0,2.92.08,5.94.2,8.91.38,9.3.67,17.86.86,26.2a.38.38,0,0,0,.38.36h20.77C119.5,211.64,119.67,212.14,119,213Z" fill="inherit"/></g><g id="change4_11"><path d="M137.19,169.09s9.7-4.54,12.49-4.4,2.79,2.3,2.79,2.3,4.74,1.26,5.58,2.38-1.39,1.95-1.39,1.95,2.51.84,1.67,2a4.28,4.28,0,0,1-2.33,1.17c-1.87.45-2.52-1.44-4.18-1.54s-3.12,1.06-4.37,1.86c-1.93,1.23-3.9,2.37-5.86,3.54C141.59,178.3,139.14,171,137.19,169.09Z" fill="#fff"/></g><g id="change4_12"><path d="M156.83,171.39s-3.52-2.34-9.24.73" fill="#fff"/></g><g id="change4_13"><path d="M147.17,168.67a29.84,29.84,0,0,1,5.3-1.68" fill="#fff"/></g><g id="change4_14"><path d="M241.82,159.6H160.64a4.79,4.79,0,0,1-4.72-5.66l8.25-45.11a4.8,4.8,0,0,1,4.72-3.93h81.18a4.8,4.8,0,0,1,4.72,5.66l-8.25,45.11A4.8,4.8,0,0,1,241.82,159.6Z" fill="#fff"/></g><g id="change2_18"><path d="M241.82,160H160.64a5.16,5.16,0,0,1-5.09-6.1l8.25-45.1a5.17,5.17,0,0,1,5.09-4.24h81.18a5.18,5.18,0,0,1,5.09,6.1l-8.25,45.1A5.17,5.17,0,0,1,241.82,160Zm-72.93-54.69a4.41,4.41,0,0,0-4.35,3.62L156.29,154a4.42,4.42,0,0,0,4.35,5.21h81.18a4.42,4.42,0,0,0,4.35-3.62l8.25-45.11a4.42,4.42,0,0,0-4.35-5.21Z" fill="inherit"/></g><g id="change2_19"><path d="M157.13,147.32l7-38.49a4.8,4.8,0,0,1,4.72-3.93h81.18a4.8,4.8,0,0,1,4.72,5.66l-6.73,36.76Z" fill="inherit"/></g><g id="change4_15"><path d="M205.35,152.9a3.35,3.35,0,1,1-3.35-3.35A3.35,3.35,0,0,1,205.35,152.9Z" fill="#fff"/></g><g id="change2_20"><path d="M202,156.63a3.73,3.73,0,1,1,3.73-3.73A3.73,3.73,0,0,1,202,156.63Zm0-6.7a3,3,0,1,0,3,3A3,3,0,0,0,202,149.93Z" fill="inherit"/></g><g id="change4_16"><path d="M261.83,176.13h-9.41V160.69h9.41Z" fill="#fff"/></g><g id="change2_21"><path d="M261.83,176.51h-9.41a.38.38,0,0,1-.37-.38V160.69a.38.38,0,0,1,.37-.37h9.41a.38.38,0,0,1,.38.37v15.44A.38.38,0,0,1,261.83,176.51Zm-9-.75h8.66V161.07H252.8Z" fill="inherit"/></g><g id="change4_17"><path d="M262.91,172.35H251.1l-.91-6.94h13.63Z" fill="#fff"/></g><g id="change2_22"><path d="M262.91,172.72H251.1a.39.39,0,0,1-.38-.32l-.9-6.94a.4.4,0,0,1,.09-.3.37.37,0,0,1,.28-.13h13.63a.37.37,0,0,1,.28.13.4.4,0,0,1,.09.3l-.9,6.94A.39.39,0,0,1,262.91,172.72ZM251.42,172h11.16l.81-6.19H250.62Z" fill="inherit"/></g><g id="change4_18"><path d="M262.56,161.55h-11V158.9h11Z" fill="#fff"/></g><g id="change2_23"><path d="M262.56,161.93h-11a.38.38,0,0,1-.38-.38V158.9a.37.37,0,0,1,.38-.37h11a.37.37,0,0,1,.38.37v2.65A.38.38,0,0,1,262.56,161.93Zm-10.65-.75h10.28v-1.9H251.91Z" fill="inherit"/></g><g id="change2_24"><path d="M294.29,255.34h-.57l-7.51-.18h0a5.82,5.82,0,0,1-3.85-1.57,15.51,15.51,0,0,1-4-5.41c-.83-2.28-2.28-2.43-4.27-2.64a14.92,14.92,0,0,1-2.74-.48c-3.08-.91-7.23-4-6-8.82a23.74,23.74,0,0,1,2.29-6.16c-1.37-1.23-7.81-7.25-6.56-11.17,1.75-5.52,5.4-8,9.76-6.75,4.95,1.46,8.33,9.88,8.81,17.31a7.49,7.49,0,0,1,3.51,1.31,7.15,7.15,0,0,1-1.07-2.57c-.75-3.9,0-6.6,2.32-8.71-.81-1.62-4.51-10.08,2.48-16.24-.22-1.32-1.18-8.17,1.8-12.15a6.92,6.92,0,0,1,5.08-2.78A5.93,5.93,0,0,1,300,191.9c2.63,5.1,1.55,14.23-1.16,17.76,1.11,1,4.67,4.52,1.84,9.18a28,28,0,0,1-3.61,4.67c-1.43,1.57-2.29,2.51-2.29,4.44a8.85,8.85,0,0,0,.88,3.87,10.8,10.8,0,0,1,1,3.92,9.78,9.78,0,0,1-1.21,5,10,10,0,0,0-.75,1.9,4.79,4.79,0,0,0,2.91-2.37,9.73,9.73,0,0,0-.21-2.66c-.73-5-2.25-15.3,8-20.86-.25-1.94-1.38-13.67,7.59-15.61,3.51-.76,6.36.22,8,2.74,2.77,4.2,1.63,11.3-2.84,17.73.84,1.34,4.74,8.38-1.11,14.58-5.17,5.47-8.45,5.72-9.62,5.58a16.41,16.41,0,0,1-10.09,13A7.68,7.68,0,0,1,294.29,255.34Zm-8.06-.94,7.51.18h.37a7,7,0,0,0,2.84-.52,15.6,15.6,0,0,0,9.68-12.75.37.37,0,0,1,.17-.29.37.37,0,0,1,.34,0s3.24,1.08,9.27-5.3,1.11-13.55.89-13.85a.38.38,0,0,1,0-.43c4.34-6.14,5.57-13.17,3-17.09-1.49-2.25-4.06-3.11-7.24-2.42-9,1.94-7,14.88-7,15a.36.36,0,0,1-.19.39c-10,5.29-8.58,15-7.81,20.22a8.15,8.15,0,0,1,.17,3c-.8,2.21-3.85,3-4,3a.39.39,0,0,1-.34-.08.39.39,0,0,1-.13-.32,8.07,8.07,0,0,1,.91-2.73,8.94,8.94,0,0,0,1.14-4.66,10,10,0,0,0-.93-3.67A9.73,9.73,0,0,1,294,228c0-2.22,1-3.36,2.49-4.94a27.82,27.82,0,0,0,3.52-4.56c2.94-4.84-1.75-8.28-1.95-8.43a.39.39,0,0,1-.15-.26.38.38,0,0,1,.09-.29c2.74-3.12,3.89-12.21,1.31-17.23-1.22-2.35-3.06-3.43-5.46-3.17a6.2,6.2,0,0,0-4.55,2.47c-3,4.08-1.64,11.7-1.63,11.78a.38.38,0,0,1-.12.36C280,210.09,285,219,285.19,219.39a.37.37,0,0,1-.08.47c-2.33,2-3,4.42-2.29,8.2.39,2.1,1.93,3.64,3.55,5.26a16,16,0,0,1,3.3,4.14c1.73,3.66-.47,8.31-.56,8.51a.36.36,0,0,1-.33.21.32.32,0,0,1-.34-.2c-1-2-3.71-1.85-3.74-1.84a.39.39,0,0,1-.33-.16.38.38,0,0,1,0-.36c0-.05,2.16-5.31.56-9.39a6.35,6.35,0,0,0-5.61-4,.37.37,0,0,1-.37-.35c-.38-7.24-3.59-15.57-8.29-17-5.65-1.68-8.06,3.82-8.84,6.26-1.21,3.81,6.51,10.51,6.59,10.58a.38.38,0,0,1,.06.5,21,21,0,0,0-2.36,6.2c-1.16,4.64,3.09,7.21,5.51,7.92a13.77,13.77,0,0,0,2.6.45c2,.22,3.9.42,4.9,3.13a14.55,14.55,0,0,0,3.79,5.12,5.08,5.08,0,0,0,3.36,1.37Zm-1-11A4.84,4.84,0,0,1,288.7,245c.52-1.37,1.51-4.64.29-7.22a15.19,15.19,0,0,0-3.15-3.93l-.54-.54c.1.21.2.42.29.64C287,237.59,285.74,241.92,285.22,243.39Z" fill="inherit"/></g><g id="change4_19"><path d="M300,285.9H281.47l-7-31H307Z" fill="#fff"/></g><g id="change2_25"><path d="M307.28,254.69a.39.39,0,0,0-.3-.14H274.47a.37.37,0,0,0-.29.14.41.41,0,0,0-.08.32l7,31a.37.37,0,0,0,.36.3H300a.36.36,0,0,0,.36-.3l7-31A.41.41,0,0,0,307.28,254.69Zm-7.6,30.84H281.77l-5.6-24.79h29.11ZM305.45,260H276l-1.06-4.69h31.57Z" fill="inherit"/></g><g id="change4_20"><path d="M242.28,118.67h-31.1a.38.38,0,0,1,0-.75h31.1a.38.38,0,1,1,0,.75Zm-.55,3.72a.38.38,0,0,0-.38-.38h-31.1a.38.38,0,0,0-.37.38.37.37,0,0,0,.37.37h31.1A.37.37,0,0,0,241.73,122.39Zm-11.12,4.46a.38.38,0,0,0-.38-.37H209.14a.38.38,0,1,0,0,.75h21.09A.38.38,0,0,0,230.61,126.85Zm-35.43,7.32a14.89,14.89,0,0,0,5-9,11.26,11.26,0,0,0-2.52-9.1,11,11,0,0,0-8.5-3.72.38.38,0,0,0-.37.32l-1.75,12.4a.36.36,0,0,0,.09.3l7.5,8.77a.35.35,0,0,0,.26.13h0A.38.38,0,0,0,195.18,134.17Zm-5.68-21.08a10.25,10.25,0,0,1,7.6,3.46,10.5,10.5,0,0,1,2.34,8.54,14,14,0,0,1-4.48,8.26L187.81,125Zm-4.27,11,1.76-12.4a.41.41,0,0,0-.09-.3.39.39,0,0,0-.28-.13,14.53,14.53,0,0,0-9.52,3.72h0a14.79,14.79,0,0,0-5,9,.36.36,0,0,0,.09.3.37.37,0,0,0,.28.13l12.39,0h0A.38.38,0,0,0,185.23,124.05Zm-7.63-8.55h0a13.88,13.88,0,0,1,8.58-3.52l-1.64,11.65-11.63,0A14.11,14.11,0,0,1,177.6,115.5Zm15.49,19.83a.36.36,0,0,0,0-.52l-7.5-8.77a.41.41,0,0,0-.3-.14l-12.39,0h0a.4.4,0,0,0-.37.35,11.24,11.24,0,0,0,2.51,9.11,11.07,11.07,0,0,0,8.5,3.71A14.47,14.47,0,0,0,193.09,135.33Zm-7.92-8.68,7.15,8.36a13.74,13.74,0,0,1-8.74,3.28,10.29,10.29,0,0,1-7.93-3.45,10.49,10.49,0,0,1-2.38-8.22Z" fill="#fff"/></g><g id="change2_26"><path d="M244.55,49.58l-.31,2.62a.38.38,0,0,1-.37.33h-.05a.38.38,0,0,1-.33-.42l.56-4.74a.39.39,0,0,1,.42-.33.37.37,0,0,1,.32.42l-.16,1.37,98.58-.28h0a.38.38,0,0,1,.31.17l.16-1.35a.38.38,0,0,1,.41-.33.37.37,0,0,1,.33.42l-.56,4.74a.37.37,0,0,1-.37.33h0a.37.37,0,0,1-.33-.42l.34-2.91a.36.36,0,0,1-.25.1Zm108.17,6h-5.3a.38.38,0,1,0,0,.75h2l-12.55,84.22a.39.39,0,0,0,.05.24h-2.47a.38.38,0,0,0,0,.75h5.31a.38.38,0,0,0,0-.75h-2.22s.07-.08.07-.13l12.56-84.28s0,0,0-.05h2.58a.38.38,0,0,0,0-.75Z" fill="inherit"/></g><g id="change2_27"><path d="M305.46,34.24H231.24a2.49,2.49,0,0,1-1.94-.86,2.61,2.61,0,0,1-.59-2.11l2.56-18a3.42,3.42,0,0,1,3.25-2.86h0l74.23,0h0a2.53,2.53,0,0,1,1.94.85,2.59,2.59,0,0,1,.58,2.11l-2.56,18A3.4,3.4,0,0,1,305.46,34.24ZM234.52,11.19a2.63,2.63,0,0,0-2.5,2.22l-2.56,18a1.85,1.85,0,0,0,.4,1.51,1.79,1.79,0,0,0,1.38.6h74.22A2.63,2.63,0,0,0,308,31.28l2.56-18a1.87,1.87,0,0,0-.41-1.52,1.78,1.78,0,0,0-1.37-.59l-74.23,0Z" fill="inherit"/></g><g id="change4_21"><path d="M249.06,22.09a6.19,6.19,0,0,1-5.91,5.12,4.28,4.28,0,0,1-4.33-5.12A6.2,6.2,0,0,1,244.73,17,4.28,4.28,0,0,1,249.06,22.09Zm49.28-3.71H258.46l-.29,2.07H298Zm-11.22,5H257.75l-.29,2.07h29.28Z" fill="#fff"/></g><g id="change4_22"><path d="M357.47,288l-.89,5.61s-8.08,1.87-11.94,2.49-5.7.27-3.55-1.59a58.56,58.56,0,0,0,5.58-6.27C350.94,291.29,357.47,288,357.47,288Zm6.2.5a59.59,59.59,0,0,1-5.58,6.27c-2.15,1.85-.31,2.21,3.55,1.59s11.94-2.49,11.94-2.49l.89-5.61S367.94,291.55,363.67,288.47Z" fill="#fff"/></g><g id="change2_28"><path d="M341.81,296.73c-1.39,0-1.78-.33-1.94-.67-.3-.66.41-1.38,1-1.86a58.64,58.64,0,0,0,5.53-6.22.39.39,0,0,1,.52-.08c4,2.91,10.34-.23,10.41-.26a.37.37,0,0,1,.39,0,.38.38,0,0,1,.15.36l-.89,5.61a.37.37,0,0,1-.28.31c-.08,0-8.14,1.88-12,2.49A18.2,18.2,0,0,1,341.81,296.73Zm4.94-8a55.82,55.82,0,0,1-5.42,6c-.83.71-.78,1-.78,1s.37.55,4,0c3.42-.55,10.29-2.11,11.67-2.43l.74-4.67C355.24,289.35,350.37,291.05,346.75,288.72ZM358.81,297c-1.39,0-1.78-.34-1.94-.67-.3-.66.41-1.38,1-1.87a57.64,57.64,0,0,0,5.53-6.22.39.39,0,0,1,.52-.07c4,2.91,10.35-.23,10.41-.27a.37.37,0,0,1,.39,0,.38.38,0,0,1,.15.36l-.89,5.6a.35.35,0,0,1-.28.31c-.08,0-8.14,1.88-12,2.5A18.2,18.2,0,0,1,358.81,297Zm4.94-8a54.89,54.89,0,0,1-5.42,6c-.83.72-.78,1-.78,1s.37.55,4,0c3.43-.55,10.29-2.11,11.67-2.43l.74-4.67C372.24,289.61,367.37,291.31,363.75,289Z" fill="inherit"/></g><g id="change3_9"><path d="M341.88,156.42s2.28,16.19,4.51,16.61c1.81.33,13.54.27,18,.27s12.28,1.68,12.7-1.53-.28-15.49-.28-15.49l-5.23,8.58S363.65,156.14,341.88,156.42Z" fill="#9ad0d3"/></g><g id="change3_10"><path d="M361.05,128.65s-14.1-7.93-16.7,7.18l8,18.92,11.45.28,3.34-7.26,14.24-.28s5.86-27.07-14.1-19.12l-.46.41a4.31,4.31,0,0,1-5.56.08Z" fill="#9ad0d3"/></g><g id="change1_2"><path d="M358.53,103.89c1.26,4.46,9.91,9.48,9.91,9.48s4.19-.55,4.05,2.52-5.17,3.9-5.17,3.9v8.65l-.73.64a3.88,3.88,0,0,1-5,.08l-.53-.44-.14-7.11c-13.12,2.65-8.93-14.24-8.93-14.24Zm8.59,43.53-5.37,11.91-18,.62s-2.24-2.92-4.2-3.48-1.39,2.1-1.39,2.1-2.65-2.08-3.91-1.66.29,3.07.29,3.07-4.19-1.8-5-1,5.05,6.82,10.77,7.08,10.75,1.08,14.94,1.48,12.67,2.3,17-3.55c4.81-6.48,8.22-16.63,8.22-16.63Z" fill="#f7dcd0"/></g><g id="change4_23"><path d="M377.09,171.77s1.82,17.58,2.65,25.39,1.12,71.35-2.79,73-11.16,5.21-20.74,4.37c-5.11-.45-14.23-3.63-14.23-5.86,0-5.64.64-65.35,1.58-75.81,1.3-14.52,2.28-20.28,2.28-20.28A111.88,111.88,0,0,0,377.09,171.77Z" fill="#fff"/></g><g id="change2_29"><path d="M359.12,275.06c-1,0-1.94,0-2.94-.13-4.8-.42-14.58-3.57-14.58-6.23,0-4.91.63-65.23,1.58-75.85,1.29-14.36,2.28-20.25,2.29-20.31a.37.37,0,0,1,.42-.31c15.52,2.07,31-.8,31.13-.83a.41.41,0,0,1,.3.07.38.38,0,0,1,.14.26s1.82,17.58,2.66,25.39c.62,5.82,1.43,71.51-3,73.41l-.85.37C372.57,272.5,366.7,275.06,359.12,275.06Zm-13-102c-.23,1.46-1.11,7.52-2.22,19.89-.95,10.6-1.58,70.88-1.58,75.78,0,1.72,8.31,5,13.89,5.49,8.82.76,15.64-2.2,19.71-4l.85-.38c3.46-1.48,3.55-63.53,2.57-72.64-.76-7.11-2.33-22.33-2.61-25A113.79,113.79,0,0,1,346.15,173Z" fill="inherit"/></g><g id="change4_24"><path d="M97.11,106.11c.34,1.6-.36,3.12-1.56,3.38s-2.46-.84-2.81-2.45.35-3.12,1.56-3.37S96.76,104.5,97.11,106.11Z" fill="#fff"/></g><g id="change2_30"><path d="M97.47,106a3.9,3.9,0,0,0-1.2-2.13,2.35,2.35,0,0,0-2-.6,2.79,2.79,0,0,0-1.93,2.85l-8.93,3.07a.37.37,0,0,0-.23.48.38.38,0,0,0,.35.25l.12,0,8.75-3c0,.06,0,.13,0,.19a3.23,3.23,0,0,0,2.83,2.78,2.18,2.18,0,0,0,.43-.05C97,109.55,97.86,107.84,97.47,106Zm-2,3.09c-1,.21-2.06-.75-2.36-2.15s.27-2.72,1.27-2.94a1.27,1.27,0,0,1,.28,0,1.7,1.7,0,0,1,1.12.47,3.15,3.15,0,0,1,1,1.72C97,107.59,96.47,108.9,95.47,109.12Z" fill="inherit"/></g><g id="change2_31"><path d="M158.83,172.51a2.45,2.45,0,0,0-1.28-1.21,2.22,2.22,0,0,0,1-1.12,1.16,1.16,0,0,0-.22-1c-.8-1.07-4.47-2.15-5.54-2.44-.11-.67-.65-2.26-3.11-2.38-2.88-.11-12.27,4.24-12.67,4.43a.37.37,0,0,0-.1.6c1.86,1.87,4.28,9,4.3,9.07a.4.4,0,0,0,.23.23l.13,0a.45.45,0,0,0,.19,0l1.5-.89c1.44-.86,2.93-1.74,4.37-2.66l.44-.29c1.14-.74,2.44-1.59,3.7-1.51a3,3,0,0,1,1.6.75,3.05,3.05,0,0,0,2.69.79,4.52,4.52,0,0,0,2.55-1.31A1.07,1.07,0,0,0,158.83,172.51Zm-.8.54a4,4,0,0,1-2.12,1,2.38,2.38,0,0,1-2.08-.67,3.81,3.81,0,0,0-2-.89c-1.53-.1-3,.87-4.16,1.64l-.43.28c-1.43.91-2.92,1.79-4.35,2.64l-1.11.66c-.53-1.51-2.34-6.46-4-8.52,1.94-.89,9.54-4.24,11.85-4.15,1.8.09,2.27,1.09,2.39,1.62a32.27,32.27,0,0,0-5,1.63.37.37,0,0,0-.2.49.37.37,0,0,0,.35.23l.14,0a29.46,29.46,0,0,1,5.14-1.64c1.79.48,4.76,1.49,5.3,2.21a.43.43,0,0,1,.1.38c-.11.36-.73.74-1.14.92-1-.51-4.36-1.75-9.3.9a.38.38,0,0,0-.15.51.35.35,0,0,0,.33.2.34.34,0,0,0,.17-.05c4.72-2.53,7.83-1.3,8.65-.87a.32.32,0,0,0,.13.1l.22.08h0c.56.22,1.24.61,1.35,1A.34.34,0,0,1,158,173.05Z" fill="inherit"/></g><g id="change3_11"><path d="M242.78,24.64l-1.94-2.3,1-.88L243,22.74l3.42-2.94.81,1Z" fill="#9ad0d3"/></g><g id="change1_3"><path d="M352.78,145.92l-2.65,11.73-10.88-1L343.2,144Z" fill="#f7dcd0"/></g><g id="change4_25"><path d="M352.49,153.07h12.28l-3,6.28-18,.56s-2.23-3.12-4.18-3.49-1.4,2.09-1.4,2.09-2.32-1.9-3.91-1.67.28,3.07.28,3.07-4.37-1.63-5.21-.79c-.46.28-14.13.18-14.13.18s-1-2.51-2.29-5.86Z" fill="#fff"/></g><g id="change2_32"><path d="M334.53,160.28a.32.32,0,0,1-.13,0c-2-.74-4.41-1.28-4.81-.88s-8.12.34-14.41.3a.37.37,0,0,1-.34-.23s-1-2.56-2.29-5.88a.35.35,0,0,1,0-.34.37.37,0,0,1,.3-.16l39.59-.37h12.29a.34.34,0,0,1,.31.17.36.36,0,0,1,0,.36l-3,6.28a.39.39,0,0,1-.33.22l-18,.55a.39.39,0,0,1-.31-.15s-2.17-3-3.95-3.34a.85.85,0,0,0-.79.14c-.34.35-.23,1.22-.17,1.5a.37.37,0,0,1-.17.4.36.36,0,0,1-.44,0c-.61-.5-2.46-1.77-3.61-1.59-.22,0-.26.12-.28.16-.2.44.37,1.65.82,2.33a.37.37,0,0,1,0,.44A.39.39,0,0,1,334.53,160.28Zm4.65-4.27a2.42,2.42,0,0,1,.45,0c1.83.35,3.79,2.81,4.3,3.48L361.5,159l2.67-5.53H352.49l-39.05.36c.95,2.5,1.74,4.47,2,5.12,5,0,12.82,0,13.7-.15.82-.63,3.12,0,4.58.45a2.89,2.89,0,0,1-.37-2.17,1,1,0,0,1,.85-.59,5.81,5.81,0,0,1,3.51,1.25,2,2,0,0,1,.45-1.32A1.38,1.38,0,0,1,339.18,156Z" fill="inherit"/></g></g></svg>